<svg xmlns="http://www.w3.org/2000/svg" viewBox="0 0 64 64">
  <defs>
    <linearGradient id="g" x1="0" y1="0" x2="1" y2="1">
      <stop offset="0%" stop-color="#ffb3d1"/>
      <stop offset="50%" stop-color="#ff8bb3"/>
      <stop offset="100%" stop-color="#e6b3ff"/>
    </linearGradient>
  </defs>
  <rect width="64" height="64" rx="12" fill="#fff0f5"/>
  <path d="M32 51c-1.3 0-2.7-.4-3.8-1.2C21.7 45.3 9 35.6 9 24.2 9 18.7 13.5 14 19.2 14c3.6 0 6.9 1.8 8.8 4.7 1.9-2.9 5.2-4.7 8.8-4.7 5.7 0 10.2 4.7 10.2 10.2 0 11.4-12.7 21.1-19.2 25.6-1.1.8-2.5 1.2-3.8 1.2z" fill="url(#g)"/>
  <circle cx="44" cy="18" r="3" fill="#ffd700"/>
</svg>

